<svg width="63" height="51" viewBox="0 0 63 51" fill="none" xmlns="http://www.w3.org/2000/svg">
<path d="M47.94 46.7762C47.3385 48.2538 46.41 49.3785 45.2593 50.0323C44.3831 50.5161 43.4023 50.7646 42.3431 50.7646C40.4208 50.7646 38.2762 49.9408 35.9746 48.3192C35.2293 47.6915 33.1762 46.2531 31.5939 46.2531C30.6393 46.2923 30.0377 46.2923 29.3054 46.2531C28.4554 46.2531 27.5139 46.6192 26.7031 47.0508C25.8923 47.4823 25.2123 47.9792 24.9116 48.2408C24.8331 48.3062 24.7546 48.3585 24.6631 48.4108C23.0546 49.2608 21.4593 49.7838 19.9554 49.9538C16.0193 50.4246 12.5016 47.6262 11.8346 43.6769C10.8016 37.6354 14.4893 32.64 14.6462 32.4308C14.8031 32.1823 19.877 24.2577 30.3908 24.2577C41.7808 24.8985 46.0569 32.2608 46.227 32.5746C46.3708 32.7577 50.8823 39.5054 47.94 46.7762Z" fill="#FF5B2E"/>
<path d="M41.1138 23.6431C45.9131 23.6431 49.81 18.4777 49.81 12.1354C49.81 5.79308 45.9131 0.640769 41.1138 0.640769C36.3277 0.640769 32.4308 5.79308 32.4308 12.1354C32.4308 18.4777 36.3277 23.6431 41.1138 23.6431ZM22.3092 21.4069C26.7815 21.4069 30.4169 16.6077 30.4169 10.71C30.4169 4.79923 26.7815 0 22.3092 0C17.8369 0 14.2015 4.79923 14.2015 10.71C14.2015 16.6077 17.8369 21.4069 22.3092 21.4069ZM6.69538 14.3454C3.00769 14.3454 0 18.2685 0 23.0938C0 27.9062 3.00769 31.8292 6.69538 31.8292C10.3831 31.8292 13.3777 27.9062 13.3777 23.0938C13.3777 18.2685 10.3831 14.3454 6.69538 14.3454Z" fill="#2178FF"/>
<path d="M55.6682 35.4777C59.5898 35.4777 62.7689 31.3092 62.7689 26.167C62.7689 21.0248 59.5898 16.8562 55.6682 16.8562C51.7465 16.8562 48.5674 21.0248 48.5674 26.167C48.5674 31.3092 51.7465 35.4777 55.6682 35.4777Z" fill="#2178FF"/>
</svg>
