<svg width="128" height="50" viewBox="0 0 128 50" fill="none" xmlns="http://www.w3.org/2000/svg">
<path d="M68.432 13.6V36H73.008V13.6H68.432ZM71.216 17.472H75.664C76.88 17.472 77.84 17.7493 78.544 18.304C79.248 18.8373 79.6 19.648 79.6 20.736C79.6 21.8027 79.248 22.6133 78.544 23.168C77.84 23.7227 76.88 24 75.664 24H71.216V27.872H75.664C77.4347 27.872 78.9387 27.584 80.176 27.008C81.4347 26.432 82.3947 25.6107 83.056 24.544C83.7173 23.456 84.048 22.1867 84.048 20.736C84.048 19.264 83.7173 17.9947 83.056 16.928C82.3947 15.8613 81.4347 15.04 80.176 14.464C78.9387 13.888 77.4347 13.6 75.664 13.6H71.216V17.472ZM93.1795 36.32C94.9502 36.32 96.4648 35.9787 97.7235 35.296C99.0035 34.592 100.028 33.5467 100.796 32.16L97.1795 31.04C96.7528 31.744 96.2088 32.2773 95.5475 32.64C94.9075 32.9813 94.1288 33.152 93.2115 33.152C92.4008 33.152 91.7075 32.9707 91.1315 32.608C90.5555 32.2453 90.1182 31.7227 89.8195 31.04C89.5422 30.3573 89.4035 29.5253 89.4035 28.544C89.4248 27.52 89.5742 26.6667 89.8515 25.984C90.1502 25.28 90.5662 24.7573 91.0995 24.416C91.6542 24.0533 92.3368 23.872 93.1475 23.872C93.8088 23.872 94.3848 24.0213 94.8755 24.32C95.3662 24.6187 95.7395 25.024 95.9955 25.536C96.2728 26.048 96.4115 26.6667 96.4115 27.392C96.4115 27.5413 96.3688 27.7333 96.2835 27.968C96.2195 28.1813 96.1448 28.352 96.0595 28.48L97.1795 27.008H87.6115V29.568H100.796C100.817 29.44 100.828 29.2693 100.828 29.056C100.849 28.8427 100.86 28.64 100.86 28.448C100.86 26.8693 100.561 25.5253 99.9635 24.416C99.3662 23.2853 98.4915 22.432 97.3395 21.856C96.2088 21.2587 94.8328 20.96 93.2115 20.96C91.5902 20.96 90.1822 21.28 88.9875 21.92C87.7928 22.5387 86.8648 23.424 86.2035 24.576C85.5635 25.7067 85.2435 27.0613 85.2435 28.64C85.2435 30.1973 85.5635 31.552 86.2035 32.704C86.8648 33.8347 87.7928 34.72 88.9875 35.36C90.1822 36 91.5795 36.32 93.1795 36.32ZM102.098 21.28V24.768H111.186V21.28H102.098ZM104.626 16.16V36H108.626V16.16H104.626ZM119.984 25.056L111.824 36H126.032V32.224H119.056L126.96 21.28H113.072V25.056H119.984Z" fill="#FF5B2E"/>
<path d="M11.0623 45.7574C4.38975 41.2682 0 33.6468 0 25C0 11.1929 11.1929 0 25 0C38.8071 0 50 11.1929 50 25C50 33.6468 45.6103 41.2682 38.9377 45.7574H11.0623Z" fill="#2178FF"/>
<path d="M21.8201 45.7574H38.9377C45.6103 41.2683 50 33.6469 50 25.0001C50 23.2229 49.8146 21.4891 49.462 19.8169L39.3082 9.66309L21.8201 45.7574Z" fill="#0053BF"/>
<path d="M31.6766 49.0985C34.2944 48.3748 36.7399 47.236 38.9377 45.7573L34.4708 29.2288H15.5292L11.0623 45.7573C13.2602 47.2359 15.7056 48.3748 18.3235 49.0985H31.6766Z" fill="#E9EDF5"/>
<path d="M38.9377 45.7573L34.4708 29.2288H24.9652V49.0985H31.6765C34.2944 48.3748 36.7399 47.236 38.9377 45.7573Z" fill="#CDD2E1"/>
<path d="M20.5324 12.4485L10.6918 9.66309L13.183 19.1298L20.5324 12.4485Z" fill="#E9EDF5"/>
<path d="M18.1349 13.6682L13.4878 12.3528L14.6643 16.8233L18.1349 13.6682Z" fill="#BEC3D2"/>
<path d="M29.4676 12.4485L39.3082 9.66309L36.817 19.1298L29.4676 12.4485Z" fill="#CDD2E1"/>
<path d="M31.8651 13.6682L36.5122 12.3528L35.3357 16.8233L31.8651 13.6682Z" fill="#9196AA"/>
<path d="M37.8217 23.1703C37.8217 30.2516 32.0813 33.0014 25 33.0014C17.9188 33.0014 12.1783 30.2516 12.1783 23.1703C12.1783 16.0891 17.9188 10.3486 25 10.3486C32.0813 10.3486 37.8217 16.0891 37.8217 23.1703Z" fill="white"/>
<path d="M25 10.3486C24.9884 10.3486 24.9768 10.349 24.9652 10.3491V33.0012C24.9768 33.0012 24.9884 33.0014 25 33.0014C32.0812 33.0014 37.8217 30.2516 37.8217 23.1703C37.8217 16.0891 32.0812 10.3486 25 10.3486Z" fill="#E9EDF5"/>
<path d="M18.5119 22.3426C19.3082 22.3426 19.9537 21.6971 19.9537 20.9008C19.9537 20.1045 19.3082 19.459 18.5119 19.459C17.7156 19.459 17.0701 20.1045 17.0701 20.9008C17.0701 21.6971 17.7156 22.3426 18.5119 22.3426Z" fill="#636978"/>
<path d="M31.4881 22.3426C32.2843 22.3426 32.9299 21.6971 32.9299 20.9008C32.9299 20.1045 32.2843 19.459 31.4881 19.459C30.6918 19.459 30.0463 20.1045 30.0463 20.9008C30.0463 21.6971 30.6918 22.3426 31.4881 22.3426Z" fill="#414952"/>
<path d="M27.0525 23.1303C27.0525 22.1549 26.1336 21.9131 25 21.9131C23.8664 21.9131 22.9476 22.1549 22.9476 23.1303C22.9476 23.6337 23.4943 24.0879 24.0234 24.4096V28.2928H25.9766V24.4096C26.5057 24.0879 27.0525 23.6337 27.0525 23.1303Z" fill="#636978"/>
<path d="M27.0524 23.1303C27.0524 22.1549 26.1336 21.9131 25 21.9131C24.9883 21.9131 24.9769 21.9136 24.9652 21.9136V28.2927H25.9765V24.4095C26.5056 24.0879 27.0524 23.6337 27.0524 23.1303Z" fill="#414952"/>
<path d="M25 34.783C21.3126 34.783 18.3234 37.7722 18.3234 41.4595V49.0984C20.4487 49.686 22.6877 50 25 50C27.3123 50 29.5513 49.686 31.6766 49.0985V41.4596C31.6766 37.7722 28.6874 34.783 25 34.783Z" fill="white"/>
<path d="M25 34.783C24.9883 34.783 24.9768 34.7837 24.9652 34.7838V49.9997C24.9768 49.9997 24.9884 50 25 50C27.3123 50 29.5512 49.686 31.6765 49.0985V41.4596C31.6765 37.7722 28.6874 34.783 25 34.783Z" fill="#E9EDF5"/>
</svg>
